SourceCode-BlackItalic.ufo
<glyph name="E" format="2">
  <advance width="600"/>
  <unicode hex="0045"/>
  <anchor x="386" y="670" name="aboveUC"/>
  <anchor x="270" y="0" name="baseLC"/>
  <anchor x="260" y="-20" name="belowLC"/>
  <anchor x="264" y="0" name="ogonekLC"/>
  <anchor x="368" y="0" name="ogonekUC"/>
  <outline>
    <contour>
      <point x="30" y="0" type="line"/>
      <point x="474" y="0" type="line"/>
      <point x="500" y="134" type="line"/>
      <point x="216" y="134" type="line"/>
      <point x="244" y="268" type="line"/>
      <point x="474" y="268" type="line"/>
      <point x="500" y="402" type="line"/>
      <point x="270" y="402" type="line"/>
      <point x="292" y="516" type="line"/>
      <point x="568" y="516" type="line"/>
      <point x="594" y="650" type="line"/>
      <point x="160" y="650" type="line"/>
    </contour>
  </outline>
</glyph>
<glyph name="S" format="2">
	<unicode hex="0053"/>
	<advance width="600"/>
	<outline>
		<contour>
			<point x="269" y="-12" type="curve" smooth="yes"/>
			<point x="403" y="-12"/>
			<point x="512" y="57"/>
			<point x="512" y="190" type="curve"/>
			<point x="512" y="281"/>
			<point x="462" y="326"/>
			<point x="398" y="368" type="curve" smooth="yes"/>
			<point x="331" y="412" type="line" smooth="yes"/>
			<point x="298" y="433"/>
			<point x="275" y="451"/>
			<point x="275" y="478" type="curve" smooth="yes"/>
			<point x="275" y="513"/>
			<point x="305" y="527"/>
			<point x="340" y="527" type="curve" smooth="yes"/>
			<point x="393" y="527"/>
			<point x="434" y="497"/>
			<point x="464" y="462" type="curve"/>
			<point x="565" y="549" type="line"/>
			<point x="519" y="614"/>
			<point x="435" y="662"/>
			<point x="340" y="662" type="curve" smooth="yes"/>
			<point x="212" y="662"/>
			<point x="110" y="588"/>
			<point x="110" y="467" type="curve" smooth="yes"/>
			<point x="110" y="380"/>
			<point x="160" y="324"/>
			<point x="220" y="288" type="curve" smooth="yes"/>
			<point x="275" y="255" type="line" smooth="yes"/>
			<point x="320" y="228"/>
			<point x="348" y="211"/>
			<point x="348" y="178" type="curve" smooth="yes"/>
			<point x="348" y="143"/>
			<point x="315" y="125"/>
			<point x="264" y="125" type="curve" smooth="yes"/>
			<point x="207" y="125"/>
			<point x="158" y="155"/>
			<point x="122" y="210" type="curve"/>
			<point x="19" y="119" type="line"/>
			<point x="65" y="45"/>
			<point x="147" y="-12"/>
		</contour>
	</outline>
	<anchor name="aboveUC" x="354" y="670"/>
	<anchor name="baseLC" x="260" y="0"/>
	<anchor name="belowLC" x="260" y="-20"/>
</glyph>
<glyph name="u" format="2">
  <advance width="600"/>
  <unicode hex="0075"/>
  <anchor x="334" y="520" name="aboveLC"/>
  <anchor x="410" y="0" name="baseLC"/>
  <anchor x="246" y="-20" name="belowLC"/>
  <anchor x="370" y="0" name="ogonekLC"/>
  <anchor x="230" y="0" name="ogonekUC"/>
  <outline>
    <contour>
      <point x="162" y="-12" type="curve" smooth="yes"/>
      <point x="226" y="-12"/>
      <point x="296" y="34"/>
      <point x="342" y="80" type="curve"/>
      <point x="346" y="80" type="line"/>
      <point x="342" y="0" type="line"/>
      <point x="472" y="0" type="line"/>
      <point x="570" y="500" type="line"/>
      <point x="410" y="500" type="line"/>
      <point x="352" y="202" type="line"/>
      <point x="313" y="150"/>
      <point x="271" y="124"/>
      <point x="238" y="124" type="curve" smooth="yes"/>
      <point x="212" y="124"/>
      <point x="196" y="138"/>
      <point x="196" y="166" type="curve" smooth="yes"/>
      <point x="196" y="178"/>
      <point x="200" y="192"/>
      <point x="204" y="210" type="curve" smooth="yes"/>
      <point x="262" y="500" type="line"/>
      <point x="102" y="500" type="line"/>
      <point x="40" y="190" type="line" smooth="yes"/>
      <point x="35" y="166"/>
      <point x="32" y="140"/>
      <point x="32" y="118" type="curve" smooth="yes"/>
      <point x="32" y="32"/>
      <point x="80" y="-12"/>
    </contour>
  </outline>
</glyph>
<glyph name="bar" format="2">
	<unicode hex="007C"/>
	<advance width="600"/>
	<outline>
		<contour>
			<point x="230" y="-250" type="line"/>
			<point x="370" y="-250" type="line"/>
			<point x="370" y="750" type="line"/>
			<point x="230" y="750" type="line"/>
		</contour>
	</outline>
</glyph>
<glyph name="oopen" format="2">
	<unicode hex="0254"/>
	<advance width="600"/>
	<outline>
		<contour>
			<point x="222" y="-12" type="curve" smooth="yes"/>
			<point x="390" y="-12"/>
			<point x="528" y="110"/>
			<point x="528" y="294" type="curve" smooth="yes"/>
			<point x="528" y="440"/>
			<point x="416" y="512"/>
			<point x="286" y="512" type="curve" smooth="yes"/>
			<point x="206" y="512"/>
			<point x="142" y="484"/>
			<point x="93" y="438" type="curve"/>
			<point x="148" y="330" type="line"/>
			<point x="184" y="359"/>
			<point x="215" y="382"/>
			<point x="262" y="382" type="curve" smooth="yes"/>
			<point x="316" y="382"/>
			<point x="366" y="350"/>
			<point x="366" y="280" type="curve" smooth="yes"/>
			<point x="366" y="188"/>
			<point x="304" y="118"/>
			<point x="232" y="118" type="curve" smooth="yes"/>
			<point x="194" y="118"/>
			<point x="156" y="134"/>
			<point x="124" y="168" type="curve"/>
			<point x="28" y="80" type="line"/>
			<point x="64" y="34"/>
			<point x="132" y="-12"/>
		</contour>
	</outline>
	<anchor name="aboveLC" x="330" y="520"/>
	<anchor name="baseLC" x="250" y="0"/>
	<anchor name="belowLC" x="234" y="-20"/>
</glyph>
<glyph name="ghook" format="2">
	<unicode hex="0260"/>
	<advance width="600"/>
	<outline>
		<contour>
			<point x="209" y="-188" type="curve" smooth="yes"/>
			<point x="335" y="-188"/>
			<point x="452" y="-141"/>
			<point x="484" y="22" type="curve" smooth="yes"/>
			<point x="574" y="464" type="line" smooth="yes"/>
			<point x="584" y="512"/>
			<point x="600" y="528"/>
			<point x="634" y="528" type="curve" smooth="yes"/>
			<point x="640" y="528"/>
			<point x="642" y="528"/>
			<point x="650" y="526" type="curve"/>
			<point x="704" y="652" type="line"/>
			<point x="688" y="658"/>
			<point x="668" y="662"/>
			<point x="634" y="662" type="curve" smooth="yes"/>
			<point x="509" y="662"/>
			<point x="442" y="584"/>
			<point x="426" y="504" type="curve"/>
			<point x="422" y="456" type="line"/>
			<point x="420" y="456" type="line"/>
			<point x="396" y="490"/>
			<point x="358" y="512"/>
			<point x="294" y="512" type="curve" smooth="yes"/>
			<point x="164" y="512"/>
			<point x="36" y="386"/>
			<point x="36" y="206" type="curve" smooth="yes"/>
			<point x="36" y="94"/>
			<point x="99" y="20"/>
			<point x="204" y="20" type="curve" smooth="yes"/>
			<point x="256" y="20"/>
			<point x="312" y="44"/>
			<point x="348" y="78" type="curve"/>
			<point x="352" y="78" type="line"/>
			<point x="332" y="14" type="line" smooth="yes"/>
			<point x="310" y="-56"/>
			<point x="255" y="-62"/>
			<point x="205" y="-62" type="curve" smooth="yes"/>
			<point x="155" y="-62"/>
			<point x="103" y="-42"/>
			<point x="66" y="-10" type="curve"/>
			<point x="-2" y="-121" type="line"/>
			<point x="49" y="-160"/>
			<point x="115" y="-188"/>
		</contour>
		<contour>
			<point x="262" y="150" type="curve" smooth="yes"/>
			<point x="222" y="150"/>
			<point x="202" y="174"/>
			<point x="202" y="230" type="curve" smooth="yes"/>
			<point x="202" y="328"/>
			<point x="270" y="382"/>
			<point x="321" y="382" type="curve" smooth="yes"/>
			<point x="349" y="382"/>
			<point x="372" y="368"/>
			<point x="390" y="342" type="curve"/>
			<point x="360" y="200" type="line"/>
			<point x="330" y="167"/>
			<point x="296" y="150"/>
		</contour>
	</outline>
	<anchor name="aboveLC" x="334" y="600"/>
	<anchor name="belowLC" x="300" y="-200"/>
</glyph>
<glyph name="lsmall" format="2">
	<unicode hex="029F"/>
	<advance width="600"/>
	<outline>
		<contour>
			<point x="66" y="0" type="line"/>
			<point x="482" y="0" type="line"/>
			<point x="508" y="124" type="line"/>
			<point x="250" y="124" type="line"/>
			<point x="324" y="500" type="line"/>
			<point x="164" y="500" type="line"/>
		</contour>
	</outline>
	<anchor name="aboveLC" x="240" y="520"/>
	<anchor name="belowLC" x="290" y="-20"/>
</glyph>
<glyph name="verticallinelowmod" format="2">
	<unicode hex="02CC"/>
	<advance width="600"/>
	<outline>
		<contour>
			<point x="107" y="-267" type="line"/>
			<point x="268" y="-267" type="line"/>
			<point x="310" y="103" type="line"/>
			<point x="213" y="103" type="line"/>
		</contour>
	</outline>
</glyph>
<glyph name="breveinvertedcmb" format="2">
	<unicode hex="0311"/>
	<advance width="600"/>
	<outline>
		<contour>
			<point x="276" y="564" type="line"/>
			<point x="289" y="604"/>
			<point x="319" y="634"/>
			<point x="365" y="634" type="curve" smooth="yes"/>
			<point x="411" y="634"/>
			<point x="428" y="604"/>
			<point x="426" y="564" type="curve"/>
			<point x="521" y="580" type="line"/>
			<point x="538" y="674"/>
			<point x="498" y="740"/>
			<point x="386" y="740" type="curve" smooth="yes"/>
			<point x="273" y="740"/>
			<point x="208" y="674"/>
			<point x="187" y="580" type="curve"/>
		</contour>
	</outline>
	<anchor name="_aboveLC" x="340" y="520"/>
</glyph>
<glyph name="breveinverteddoublecmb" format="2">
	<unicode hex="0361"/>
	<advance width="600"/>
	<outline>
		<contour>
			<point x="-44" y="580" type="line"/>
			<point x="96" y="652"/>
			<point x="259" y="672"/>
			<point x="372" y="672" type="curve" smooth="yes"/>
			<point x="486" y="672"/>
			<point x="641" y="652"/>
			<point x="751" y="580" type="curve"/>
			<point x="809" y="658" type="line"/>
			<point x="693" y="742"/>
			<point x="544" y="780"/>
			<point x="394" y="780" type="curve" smooth="yes"/>
			<point x="244" y="780"/>
			<point x="79" y="742"/>
			<point x="-70" y="658" type="curve"/>
		</contour>
	</outline>
</glyph>
<glyph name="prime" format="2">
	<unicode hex="2032"/>
	<advance width="600"/>
	<outline>
		<contour>
			<point x="234" y="340" type="line"/>
			<point x="338" y="340" type="line"/>
			<point x="424" y="532" type="line"/>
			<point x="482" y="686" type="line"/>
			<point x="324" y="686" type="line"/>
		</contour>
	</outline>
</glyph>
<glyph name="guilsinglleft" format="2">
	<unicode hex="2039"/>
	<advance width="600"/>
	<outline>
		<contour>
			<point x="308" y="20" type="line"/>
			<point x="387" y="79" type="line"/>
			<point x="312" y="244" type="line"/>
			<point x="456" y="421" type="line"/>
			<point x="401" y="484" type="line"/>
			<point x="193" y="321" type="line"/>
			<point x="170" y="193" type="line"/>
		</contour>
	</outline>
</glyph>
<glyph name="arrowdown" format="2">
	<unicode hex="2193"/>
	<advance width="600"/>
	<outline>
		<contour>
			<point x="298" y="-26" type="line"/>
			<point x="302" y="-26" type="line"/>
			<point x="570" y="253" type="line"/>
			<point x="483" y="328" type="line"/>
			<point x="364" y="189" type="line"/>
			<point x="364" y="530" type="line"/>
			<point x="236" y="530" type="line"/>
			<point x="236" y="189" type="line"/>
			<point x="117" y="328" type="line"/>
			<point x="30" y="253" type="line"/>
		</contour>
	</outline>
</glyph>
<glyph name="arrowupdn" format="2">
	<unicode hex="2195"/>
	<advance width="600"/>
	<outline>
		<contour>
			<point x="302" y="-56" type="line"/>
			<point x="528" y="124" type="line"/>
			<point x="464" y="208" type="line"/>
			<point x="364" y="124" type="line"/>
			<point x="364" y="380" type="line"/>
			<point x="464" y="296" type="line"/>
			<point x="528" y="380" type="line"/>
			<point x="302" y="560" type="line"/>
			<point x="298" y="560" type="line"/>
			<point x="72" y="380" type="line"/>
			<point x="136" y="296" type="line"/>
			<point x="236" y="380" type="line"/>
			<point x="236" y="124" type="line"/>
			<point x="136" y="208" type="line"/>
			<point x="72" y="124" type="line"/>
			<point x="298" y="-56" type="line"/>
		</contour>
	</outline>
</glyph>
<glyph name="arrowupleft" format="2">
	<unicode hex="2196"/>
	<advance width="600"/>
	<outline>
		<contour>
			<point x="441" y="10" type="line"/>
			<point x="532" y="101" type="line"/>
			<point x="291" y="341" type="line"/>
			<point x="474" y="328" type="line"/>
			<point x="482" y="442" type="line"/>
			<point x="96" y="450" type="line"/>
			<point x="93" y="447" type="line"/>
			<point x="100" y="61" type="line"/>
			<point x="215" y="68" type="line"/>
			<point x="201" y="251" type="line"/>
		</contour>
	</outline>
</glyph>
<glyph name="arrowdownright" format="2">
	<unicode hex="2198"/>
	<advance width="600"/>
	<outline>
		<contour>
			<point x="504" y="54" type="line"/>
			<point x="507" y="57" type="line"/>
			<point x="500" y="443" type="line"/>
			<point x="385" y="436" type="line"/>
			<point x="399" y="253" type="line"/>
			<point x="158" y="494" type="line"/>
			<point x="68" y="403" type="line"/>
			<point x="309" y="163" type="line"/>
			<point x="126" y="176" type="line"/>
			<point x="118" y="62" type="line"/>
		</contour>
	</outline>
</glyph>
<glyph name="arrowdblleft" format="2">
	<unicode hex="21D0"/>
	<advance width="600"/>
	<outline>
		<contour>
			<point x="292" y="-18" type="line"/>
			<point x="367" y="69" type="line"/>
			<point x="155" y="250" type="line"/>
			<point x="155" y="254" type="line"/>
			<point x="367" y="435" type="line"/>
			<point x="292" y="522" type="line"/>
			<point x="13" y="254" type="line"/>
			<point x="13" y="250" type="line"/>
		</contour>
		<contour>
			<point x="160" y="283" type="line"/>
			<point x="568" y="283" type="line"/>
			<point x="568" y="375" type="line"/>
			<point x="160" y="375" type="line"/>
		</contour>
		<contour>
			<point x="160" y="129" type="line"/>
			<point x="568" y="129" type="line"/>
			<point x="568" y="221" type="line"/>
			<point x="160" y="221" type="line"/>
		</contour>
	</outline>
</glyph>
<glyph name="arrowdblup" format="2">
	<unicode hex="21D1"/>
	<advance width="600"/>
	<outline>
		<contour>
			<point x="117" y="175" type="line"/>
			<point x="298" y="387" type="line"/>
			<point x="302" y="387" type="line"/>
			<point x="483" y="175" type="line"/>
			<point x="570" y="251" type="line"/>
			<point x="302" y="530" type="line"/>
			<point x="298" y="530" type="line"/>
			<point x="30" y="251" type="line"/>
		</contour>
		<contour>
			<point x="331" y="-26" type="line"/>
			<point x="423" y="-26" type="line"/>
			<point x="423" y="382" type="line"/>
			<point x="331" y="382" type="line"/>
		</contour>
		<contour>
			<point x="177" y="-26" type="line"/>
			<point x="269" y="-26" type="line"/>
			<point x="269" y="382" type="line"/>
			<point x="177" y="382" type="line"/>
		</contour>
	</outline>
</glyph>
<glyph name="arrowdbldown" format="2">
	<unicode hex="21D3"/>
	<advance width="600"/>
	<outline>
		<contour>
			<point x="298" y="-26" type="line"/>
			<point x="302" y="-26" type="line"/>
			<point x="570" y="253" type="line"/>
			<point x="483" y="328" type="line"/>
			<point x="302" y="117" type="line"/>
			<point x="298" y="117" type="line"/>
			<point x="117" y="328" type="line"/>
			<point x="30" y="253" type="line"/>
		</contour>
		<contour>
			<point x="177" y="121" type="line"/>
			<point x="269" y="121" type="line"/>
			<point x="269" y="530" type="line"/>
			<point x="177" y="530" type="line"/>
		</contour>
		<contour>
			<point x="331" y="121" type="line"/>
			<point x="423" y="121" type="line"/>
			<point x="423" y="530" type="line"/>
			<point x="331" y="530" type="line"/>
		</contour>
	</outline>
</glyph>
<glyph name="vertlightleftheavybxd" format="2">
	<unicode hex="2525"/>
	<advance width="600"/>
	<outline>
		<contour>
			<point x="380" y="-400" type="line"/>
			<point x="380" y="1000" type="line"/>
			<point x="220" y="1000" type="line"/>
			<point x="220" y="460" type="line"/>
			<point x="-80" y="460" type="line"/>
			<point x="-80" y="140" type="line"/>
			<point x="220" y="140" type="line"/>
			<point x="220" y="-400" type="line"/>
		</contour>
	</outline>
</glyph>
<glyph name="leftheavyrightuplightbxd" format="2">
	<unicode hex="2535"/>
	<advance width="600"/>
	<outline>
		<contour>
			<point x="680" y="220" type="line"/>
			<point x="680" y="380" type="line"/>
			<point x="380" y="380" type="line"/>
			<point x="380" y="1000" type="line"/>
			<point x="220" y="1000" type="line"/>
			<point x="220" y="460" type="line"/>
			<point x="-80" y="460" type="line"/>
			<point x="-80" y="140" type="line"/>
			<point x="380" y="140" type="line"/>
			<point x="380" y="220" type="line"/>
		</contour>
	</outline>
</glyph>
<glyph name="bulletsquare" format="2">
	<unicode hex="25AA"/>
	<advance width="600"/>
	<outline>
		<contour>
			<point x="145" y="110" type="line"/>
			<point x="455" y="110" type="line"/>
			<point x="455" y="414" type="line"/>
			<point x="145" y="414" type="line"/>
		</contour>
	</outline>
</glyph>
<glyph name="triangleupblack" format="2">
	<unicode hex="25B2"/>
	<advance width="600"/>
	<outline>
		<contour>
			<point x="66" y="101" type="line"/>
			<point x="534" y="101" type="line"/>
			<point x="534" y="104" type="line"/>
			<point x="302" y="583" type="line"/>
			<point x="298" y="583" type="line"/>
			<point x="66" y="104" type="line"/>
		</contour>
	</outline>
</glyph>
<glyph name="trianglesmallrightwhite" format="2">
	<unicode hex="25B9"/>
	<advance width="600"/>
	<outline>
		<contour>
			<point x="126" y="47" type="line"/>
			<point x="130" y="47" type="line"/>
			<point x="517" y="260" type="line"/>
			<point x="517" y="264" type="line"/>
			<point x="130" y="477" type="line"/>
			<point x="126" y="477" type="line"/>
		</contour>
		<contour>
			<point x="201" y="177" type="line"/>
			<point x="201" y="347" type="line"/>
			<point x="372" y="262" type="line"/>
		</contour>
	</outline>
</glyph>
<glyph name="triangledownblack" format="2">
	<unicode hex="25BC"/>
	<advance width="600"/>
	<outline>
		<contour>
			<point x="298" y="81" type="line"/>
			<point x="302" y="81" type="line"/>
			<point x="534" y="559" type="line"/>
			<point x="534" y="563" type="line"/>
			<point x="66" y="563" type="line"/>
			<point x="66" y="559" type="line"/>
		</contour>
	</outline>
</glyph>
<glyph name="trianglesmallleftwhite" format="2">
	<unicode hex="25C3"/>
	<advance width="600"/>
	<outline>
		<contour>
			<point x="470" y="47" type="line"/>
			<point x="474" y="47" type="line"/>
			<point x="474" y="477" type="line"/>
			<point x="470" y="477" type="line"/>
			<point x="83" y="264" type="line"/>
			<point x="83" y="260" type="line"/>
		</contour>
		<contour>
			<point x="399" y="177" type="line"/>
			<point x="228" y="262" type="line"/>
			<point x="399" y="347" type="line"/>
		</contour>
	</outline>
</glyph>
<glyph name="fisheye" format="2">
	<unicode hex="25C9"/>
	<advance width="600"/>
	<outline>
		<contour>
			<point x="300" y="87" type="curve" smooth="yes"/>
			<point x="439" y="87"/>
			<point x="545" y="188"/>
			<point x="545" y="332" type="curve" smooth="yes"/>
			<point x="545" y="475"/>
			<point x="439" y="577"/>
			<point x="300" y="577" type="curve" smooth="yes"/>
			<point x="161" y="577"/>
			<point x="55" y="475"/>
			<point x="55" y="332" type="curve" smooth="yes"/>
			<point x="55" y="188"/>
			<point x="161" y="87"/>
		</contour>
		<contour>
			<point x="300" y="163" type="curve" smooth="yes"/>
			<point x="207" y="163"/>
			<point x="135" y="232"/>
			<point x="135" y="332" type="curve" smooth="yes"/>
			<point x="135" y="431"/>
			<point x="207" y="500"/>
			<point x="300" y="500" type="curve" smooth="yes"/>
			<point x="393" y="500"/>
			<point x="465" y="431"/>
			<point x="465" y="332" type="curve" smooth="yes"/>
			<point x="465" y="232"/>
			<point x="393" y="163"/>
		</contour>
		<contour>
			<point x="300" y="216" type="curve" smooth="yes"/>
			<point x="363" y="216"/>
			<point x="412" y="266"/>
			<point x="412" y="332" type="curve" smooth="yes"/>
			<point x="412" y="397"/>
			<point x="363" y="448"/>
			<point x="300" y="448" type="curve" smooth="yes"/>
			<point x="237" y="448"/>
			<point x="188" y="397"/>
			<point x="188" y="332" type="curve" smooth="yes"/>
			<point x="188" y="266"/>
			<point x="237" y="216"/>
		</contour>
	</outline>
</glyph>
<glyph name="invsmileface" format="2">
	<unicode hex="263B"/>
	<advance width="600"/>
	<outline>
		<contour>
			<point x="300" y="46" type="curve" smooth="yes"/>
			<point x="471" y="46"/>
			<point x="588" y="163"/>
			<point x="588" y="330" type="curve" smooth="yes"/>
			<point x="588" y="497"/>
			<point x="471" y="614"/>
			<point x="300" y="614" type="curve" smooth="yes"/>
			<point x="129" y="614"/>
			<point x="12" y="497"/>
			<point x="12" y="330" type="curve" smooth="yes"/>
			<point x="12" y="163"/>
			<point x="129" y="46"/>
		</contour>
		<contour>
			<point x="216" y="344" type="curve" smooth="yes"/>
			<point x="183" y="344"/>
			<point x="163" y="372"/>
			<point x="163" y="413" type="curve" smooth="yes"/>
			<point x="163" y="454"/>
			<point x="183" y="482"/>
			<point x="216" y="482" type="curve" smooth="yes"/>
			<point x="250" y="482"/>
			<point x="270" y="454"/>
			<point x="270" y="413" type="curve" smooth="yes"/>
			<point x="270" y="372"/>
			<point x="250" y="344"/>
		</contour>
		<contour>
			<point x="384" y="344" type="curve" smooth="yes"/>
			<point x="350" y="344"/>
			<point x="330" y="372"/>
			<point x="330" y="413" type="curve" smooth="yes"/>
			<point x="330" y="454"/>
			<point x="350" y="482"/>
			<point x="384" y="482" type="curve" smooth="yes"/>
			<point x="417" y="482"/>
			<point x="437" y="454"/>
			<point x="437" y="413" type="curve" smooth="yes"/>
			<point x="437" y="372"/>
			<point x="417" y="344"/>
		</contour>
		<contour>
			<point x="300" y="141" type="curve" smooth="yes"/>
			<point x="206" y="141"/>
			<point x="156" y="184"/>
			<point x="137" y="262" type="curve"/>
			<point x="186" y="283" type="line"/>
			<point x="205" y="243"/>
			<point x="243" y="221"/>
			<point x="300" y="221" type="curve" smooth="yes"/>
			<point x="357" y="221"/>
			<point x="395" y="243"/>
			<point x="414" y="283" type="curve"/>
			<point x="463" y="262" type="line"/>
			<point x="444" y="184"/>
			<point x="394" y="141"/>
		</contour>
		<contour>
			<point x="201" y="397" type="curve" smooth="yes"/>
			<point x="211" y="397"/>
			<point x="219" y="405"/>
			<point x="219" y="417" type="curve" smooth="yes"/>
			<point x="219" y="429"/>
			<point x="211" y="437"/>
			<point x="201" y="437" type="curve" smooth="yes"/>
			<point x="191" y="437"/>
			<point x="183" y="429"/>
			<point x="183" y="417" type="curve" smooth="yes"/>
			<point x="183" y="405"/>
			<point x="191" y="397"/>
		</contour>
		<contour>
			<point x="368" y="397" type="curve" smooth="yes"/>
			<point x="378" y="397"/>
			<point x="386" y="405"/>
			<point x="386" y="417" type="curve" smooth="yes"/>
			<point x="386" y="429"/>
			<point x="378" y="437"/>
			<point x="368" y="437" type="curve" smooth="yes"/>
			<point x="358" y="437"/>
			<point x="350" y="429"/>
			<point x="350" y="417" type="curve" smooth="yes"/>
			<point x="350" y="405"/>
			<point x="358" y="397"/>
		</contour>
	</outline>
</glyph>
<glyph name="club" format="2">
	<unicode hex="2663"/>
	<advance width="600"/>
	<outline>
		<contour>
			<point x="94" y="0" type="line"/>
			<point x="506" y="0" type="line"/>
			<point x="506" y="61" type="line"/>
			<point x="407" y="75"/>
			<point x="350" y="125"/>
			<point x="330" y="272" type="curve"/>
			<point x="270" y="272" type="line"/>
			<point x="250" y="125"/>
			<point x="193" y="75"/>
			<point x="94" y="61" type="curve"/>
		</contour>
		<contour>
			<point x="128" y="158" type="curve" smooth="yes"/>
			<point x="178" y="158"/>
			<point x="232" y="179"/>
			<point x="260" y="248" type="curve"/>
			<point x="340" y="248" type="line"/>
			<point x="368" y="179"/>
			<point x="422" y="158"/>
			<point x="472" y="158" type="curve" smooth="yes"/>
			<point x="548" y="158"/>
			<point x="602" y="215"/>
			<point x="602" y="303" type="curve" smooth="yes"/>
			<point x="602" y="401"/>
			<point x="535" y="445"/>
			<point x="462" y="445" type="curve" smooth="yes"/>
			<point x="435" y="445"/>
			<point x="415" y="441"/>
			<point x="376" y="425" type="curve"/>
			<point x="372" y="429" type="line"/>
			<point x="444" y="485"/>
			<point x="451" y="543"/>
			<point x="451" y="579" type="curve" smooth="yes"/>
			<point x="451" y="651"/>
			<point x="386" y="700"/>
			<point x="300" y="700" type="curve" smooth="yes"/>
			<point x="214" y="700"/>
			<point x="149" y="651"/>
			<point x="149" y="579" type="curve" smooth="yes"/>
			<point x="149" y="543"/>
			<point x="156" y="485"/>
			<point x="228" y="429" type="curve"/>
			<point x="224" y="425" type="line"/>
			<point x="185" y="441"/>
			<point x="165" y="445"/>
			<point x="138" y="445" type="curve" smooth="yes"/>
			<point x="65" y="445"/>
			<point x="-2" y="401"/>
			<point x="-2" y="303" type="curve" smooth="yes"/>
			<point x="-2" y="215"/>
			<point x="52" y="158"/>
		</contour>
	</outline>
</glyph>
<glyph name="heartblackheavy" format="2">
	<unicode hex="2764"/>
	<advance width="600"/>
	<outline>
		<contour>
			<point x="302" y="26" type="line"/>
			<point x="393" y="205"/>
			<point x="654" y="182"/>
			<point x="654" y="451" type="curve" smooth="yes"/>
			<point x="654" y="577"/>
			<point x="576" y="640"/>
			<point x="465" y="640" type="curve" smooth="yes"/>
			<point x="382" y="640"/>
			<point x="326" y="608"/>
			<point x="302" y="519" type="curve"/>
			<point x="298" y="519" type="line"/>
			<point x="274" y="608"/>
			<point x="218" y="640"/>
			<point x="135" y="640" type="curve" smooth="yes"/>
			<point x="24" y="640"/>
			<point x="-54" y="577"/>
			<point x="-54" y="451" type="curve" smooth="yes"/>
			<point x="-54" y="182"/>
			<point x="207" y="205"/>
			<point x="298" y="26" type="curve"/>
		</contour>
	</outline>
</glyph>
<glyph name="brackhalftopleft" format="2">
	<unicode hex="2E22"/>
	<advance width="600"/>
	<outline>
		<contour>
			<point x="188" y="278" type="line"/>
			<point x="308" y="278" type="line"/>
			<point x="378" y="624" type="line"/>
			<point x="558" y="624" type="line"/>
			<point x="574" y="708" type="line"/>
			<point x="276" y="708" type="line"/>
		</contour>
	</outline>
</glyph>
<glyph name="carondotaccentcmb" format="2">
	<advance width="600"/>
	<outline>
		<contour>
			<point x="384" y="702" type="curve" smooth="yes"/>
			<point x="434" y="702"/>
			<point x="480" y="746"/>
			<point x="480" y="798" type="curve" smooth="yes"/>
			<point x="480" y="844"/>
			<point x="446" y="864"/>
			<point x="408" y="864" type="curve" smooth="yes"/>
			<point x="358" y="864"/>
			<point x="312" y="820"/>
			<point x="312" y="768" type="curve" smooth="yes"/>
			<point x="312" y="722"/>
			<point x="346" y="702"/>
		</contour>
		<contour>
			<point x="276" y="580" type="line"/>
			<point x="452" y="580" type="line"/>
			<point x="580" y="704" type="line"/>
			<point x="536" y="758" type="line"/>
			<point x="374" y="668" type="line"/>
			<point x="370" y="668" type="line"/>
			<point x="252" y="758" type="line"/>
			<point x="192" y="708" type="line"/>
		</contour>
	</outline>
	<anchor name="_aboveLC" x="340" y="520"/>
</glyph>
<glyph name="circumflexacutecmb" format="2">
	<advance width="600"/>
	<outline>
		<contour>
			<point x="247" y="564" type="line"/>
			<point x="363" y="630" type="line"/>
			<point x="367" y="630" type="line"/>
			<point x="455" y="564" type="line"/>
			<point x="517" y="620" type="line"/>
			<point x="443" y="716" type="line"/>
			<point x="307" y="716" type="line"/>
			<point x="201" y="628" type="line"/>
		</contour>
		<contour>
			<point x="537" y="641" type="line"/>
			<point x="660" y="752" type="line"/>
			<point x="581" y="818" type="line"/>
			<point x="483" y="696" type="line"/>
		</contour>
	</outline>
	<anchor name="_aboveLC" x="340" y="520"/>
</glyph>
<glyph name="circumflexbrevecmb" format="2">
	<advance width="600"/>
	<outline>
		<contour>
			<point x="270" y="562" type="line"/>
			<point x="362" y="622" type="line"/>
			<point x="366" y="622" type="line"/>
			<point x="438" y="562" type="line"/>
			<point x="504" y="598" type="line"/>
			<point x="444" y="690" type="line"/>
			<point x="308" y="690" type="line"/>
			<point x="216" y="598" type="line"/>
		</contour>
		<contour>
			<point x="382" y="724" type="curve" smooth="yes"/>
			<point x="471" y="724"/>
			<point x="512" y="768"/>
			<point x="534" y="826" type="curve"/>
			<point x="476" y="846" type="line"/>
			<point x="460" y="822"/>
			<point x="444" y="802"/>
			<point x="396" y="802" type="curve" smooth="yes"/>
			<point x="348" y="802"/>
			<point x="336" y="822"/>
			<point x="328" y="846" type="curve"/>
			<point x="266" y="826" type="line"/>
			<point x="268" y="768"/>
			<point x="293" y="724"/>
		</contour>
	</outline>
	<anchor name="_aboveLC" x="340" y="520"/>
</glyph>
<glyph name="comma.subs" format="2">
	<advance width="600"/>
	<outline>
		<contour>
			<point x="161" y="-322" type="line"/>
			<point x="265" y="-294"/>
			<point x="323" y="-230"/>
			<point x="323" y="-138" type="curve" smooth="yes"/>
			<point x="323" y="-94"/>
			<point x="294" y="-64"/>
			<point x="258" y="-64" type="curve" smooth="yes"/>
			<point x="216" y="-64"/>
			<point x="185" y="-90"/>
			<point x="185" y="-134" type="curve" smooth="yes"/>
			<point x="185" y="-166"/>
			<point x="210" y="-188"/>
			<point x="240" y="-188" type="curve" smooth="yes"/>
			<point x="254" y="-188"/>
			<point x="267" y="-182"/>
			<point x="279" y="-174" type="curve"/>
			<point x="257" y="-114" type="line"/>
			<point x="242" y="-186" type="line"/>
			<point x="236" y="-224"/>
			<point x="203" y="-246"/>
			<point x="149" y="-262" type="curve"/>
		</contour>
	</outline>
</glyph>
<glyph name="gravecmb.cap" format="2">
	<advance width="600"/>
	<outline>
		<contour>
			<point x="398" y="670" type="line"/>
			<point x="488" y="748" type="line"/>
			<point x="332" y="907" type="line"/>
			<point x="223" y="806" type="line"/>
		</contour>
	</outline>
	<anchor name="_aboveUC" x="370" y="670"/>
</glyph>
<glyph name="istroke.d" format="2">
	<advance width="600"/>
	<outline>
		<contour>
			<point x="56" y="216" type="line"/>
			<point x="468" y="216" type="line"/>
			<point x="484" y="292" type="line"/>
			<point x="210" y="292" type="line"/>
			<point x="70" y="286" type="line"/>
		</contour>
		<component base="dotlessi"/>
	</outline>
	<anchor name="aboveLC" x="320" y="520"/>
	<anchor name="belowLC" x="304" y="-20"/>
</glyph>
<glyph name="two.onum" format="2">
	<advance width="600"/>
	<outline>
		<contour>
			<point x="8" y="0" type="line"/>
			<point x="482" y="0" type="line"/>
			<point x="508" y="134" type="line"/>
			<point x="386" y="134" type="line" smooth="yes"/>
			<point x="362" y="134"/>
			<point x="326" y="132"/>
			<point x="290" y="126" type="curve"/>
			<point x="408" y="220"/>
			<point x="502" y="298"/>
			<point x="502" y="424" type="curve" smooth="yes"/>
			<point x="502" y="528"/>
			<point x="424" y="592"/>
			<point x="316" y="592" type="curve" smooth="yes"/>
			<point x="212" y="592"/>
			<point x="152" y="566"/>
			<point x="82" y="496" type="curve"/>
			<point x="154" y="406" type="line"/>
			<point x="194" y="444"/>
			<point x="232" y="466"/>
			<point x="278" y="466" type="curve" smooth="yes"/>
			<point x="316" y="466"/>
			<point x="346" y="446"/>
			<point x="346" y="400" type="curve" smooth="yes"/>
			<point x="346" y="314"/>
			<point x="212" y="216"/>
			<point x="26" y="90" type="curve"/>
		</contour>
	</outline>
</glyph>
<glyph name="zero.0" format="2">
	<advance width="600"/>
	<outline>
		<contour>
			<point x="256" y="-12" type="curve" smooth="yes"/>
			<point x="452" y="-12"/>
			<point x="570" y="172"/>
			<point x="570" y="392" type="curve" smooth="yes"/>
			<point x="570" y="548"/>
			<point x="480" y="646"/>
			<point x="348" y="646" type="curve" smooth="yes"/>
			<point x="152" y="646"/>
			<point x="34" y="462"/>
			<point x="34" y="242" type="curve" smooth="yes"/>
			<point x="34" y="86"/>
			<point x="124" y="-12"/>
		</contour>
		<contour>
			<point x="270" y="110" type="curve" smooth="yes"/>
			<point x="212" y="110"/>
			<point x="182" y="160"/>
			<point x="182" y="252" type="curve" smooth="yes"/>
			<point x="182" y="398"/>
			<point x="242" y="524"/>
			<point x="334" y="524" type="curve" smooth="yes"/>
			<point x="392" y="524"/>
			<point x="422" y="474"/>
			<point x="422" y="382" type="curve" smooth="yes"/>
			<point x="422" y="236"/>
			<point x="362" y="110"/>
		</contour>
		<contour>
			<point x="396" y="66" type="line"/>
			<point x="449" y="104" type="line"/>
			<point x="221" y="554" type="line"/>
			<point x="156" y="540" type="line"/>
		</contour>
	</outline>
</glyph>
